C:/Program Files/Krita (x64)/bin/ffmpeg.exe -hide_banner -y -y -r 24 -start_number 0 -start_number_range 1 -i C:/Users/HP/OneDrive/Escritorio/USM/project/App-Extrahuevoordinaria-fr/app/static/images/gifs/fotograma%04d.png -i C:/Users/HP/OneDrive/Escritorio/USM/project/App-Extrahuevoordinaria-fr/app/static/images/gifs/KritaTempPalettegen_%06d.png -lavfi [0:v][1:v]paletteuse=dither=sierra2_4a:diff_mode=none -f gif -loop 0 -gifflags +transdiff C:/Users/HP/OneDrive/Escritorio/USM/project/App-Extrahuevoordinaria-fr/app/static/images/gifs/test.gif
=====================================================
Input #0, image2, from 'C:/Users/HP/OneDrive/Escritorio/USM/project/App-Extrahuevoordinaria-fr/app/static/images/gifs/fotograma%04d.png':
  Duration: 00:00:06.00, start: 0.000000, bitrate: N/A
  Stream #0:0: Video: png, rgba(pc, gbr/unknown/unknown), 1920x1080 [SAR 11811:11811 DAR 16:9], 25 fps, 25 tbr, 25 tbn
Input #1, image2, from 'C:/Users/HP/OneDrive/Escritorio/USM/project/App-Extrahuevoordinaria-fr/app/static/images/gifs/KritaTempPalettegen_%06d.png':
  Duration: 00:00:00.04, start: 0.000000, bitrate: N/A
  Stream #1:0: Video: png, rgba(pc, gbr/unknown/unknown), 16x16 [SAR 1:1 DAR 1:1], 25 fps, 25 tbr, 25 tbn
Stream mapping:
  Stream #0:0 (png) -> paletteuse
  Stream #1:0 (png) -> paletteuse
  paletteuse:default -> Stream #0:0 (gif)
Press [q] to stop, [?] for help
Output #0, gif, to 'C:/Users/HP/OneDrive/Escritorio/USM/project/App-Extrahuevoordinaria-fr/app/static/images/gifs/test.gif':
  Metadata:
    encoder         : Lavf61.7.100
  Stream #0:0: Video: gif, pal8(pc, gbr/unknown/unknown, progressive), 1920x1080 [SAR 1:1 DAR 16:9], q=2-31, 200 kb/s, 24 fps, 100 tbn
      Metadata:
        encoder         : Lavc61.19.101 gif
frame=   11 fps=0.0 q=-0.0 size=    2048KiB time=00:00:00.45 bitrate=36604.9kbits/s speed=0.898x    frame=   26 fps= 25 q=-0.0 size=    5120KiB time=00:00:01.08 bitrate=38716.7kbits/s speed=1.06x    frame=   42 fps= 27 q=-0.0 size=    8704KiB time=00:00:01.75 bitrate=40744.7kbits/s speed=1.14x    frame=   58 fps= 28 q=-0.0 size=   12544KiB time=00:00:02.41 bitrate=42521.6kbits/s speed=1.18x    frame=   74 fps= 29 q=-0.0 size=   16128KiB time=00:00:03.08 bitrate=42849.9kbits/s speed= 1.2x    frame=   91 fps= 30 q=-0.0 size=   19968KiB time=00:00:03.79 bitrate=43141.4kbits/s speed=1.23x    frame=  106 fps= 30 q=-0.0 size=   23040KiB time=00:00:04.41 bitrate=42734.4kbits/s speed=1.23x    frame=  123 fps= 30 q=-0.0 size=   27136KiB time=00:00:05.12 bitrate=43375.2kbits/s speed=1.25x    frame=  139 fps= 30 q=-0.0 size=   30720KiB time=00:00:05.79 bitrate=43451.8kbits/s speed=1.26x    [out#0/gif @ 0000012cb1ca4dc0] video:33898KiB audio:0KiB subtitle:0KiB other streams:0KiB global headers:0KiB muxing overhead: 0.000058%
frame=  150 fps= 30 q=-0.0 Lsize=   33898KiB time=00:00:06.25 bitrate=44431.0kbits/s speed=1.27x    
